<?xml version="1.0" encoding="UTF-8"?>
<svg width="166px" height="38px" viewBox="0 0 166 38" version="1.1" xmlns="http://www.w3.org/2000/svg" xmlns:xlink="http://www.w3.org/1999/xlink">
    <!-- Generator: sketchtool 57.1 (101010) - https://sketch.com -->
    <title>971B412D-73A4-492C-9B9E-34F9C3CF7809@3x</title>
    <desc>Created with sketchtool.</desc>
    <defs>
        <polygon id="path-1" points="0 0.09061632 31.7777126 0.09061632 31.7777126 37.3241779 0 37.3241779"></polygon>
        <polygon id="path-3" points="0.18789327 0.211066574 6.3120384 0.211066574 6.3120384 13.087849 0.18789327 13.087849"></polygon>
    </defs>
    <g id="Page-1" stroke="none" stroke-width="1" fill="none" fill-rule="evenodd">
        <g id="USTK-Intro" transform="translate(-637.000000, -946.000000)">
            <g id="Powered-by-Tudr" transform="translate(637.000000, 946.000000)">
                <g id="Group-19" transform="translate(88.500000, 0.000000)">
                    <path d="M5.15953152,14.5698739 C5.15953152,14.5698739 6.53640192,13.3132723 8.12477952,13.3132723 C9.71108352,13.3132723 11.0796595,14.5698739 11.0796595,14.5698739 C11.4653491,14.8498099 11.7680947,14.6859955 11.9816755,14.0763571 C11.8551859,13.5227059 11.5296307,13.0354099 11.0692915,12.7015603 C11.0692915,12.7015603 9.80439552,11.6979379 8.12477952,11.6979379 C6.44101632,11.6979379 5.17404672,12.7015603 5.17404672,12.7015603 C4.74895872,12.9649075 4.34253312,13.5849139 4.25336832,14.0763571 C4.47109632,14.6942899 4.77176832,14.8601779 5.15953152,14.5698739" id="Fill-1" fill="#FFFFFF"></path>
                    <g id="Group-5" transform="translate(0.000000, 0.256020)">
                        <mask id="mask-2" fill="white">
                            <use xlink:href="#path-1"></use>
                        </mask>
                        <g id="Clip-4"></g>
                        <path d="M27.991319,24.1008307 C24.1696742,24.2563507 20.5823462,22.3279027 18.1977062,18.9251251 C17.3475302,17.2932019 17.0572262,15.6737203 16.9576934,14.7343795 L16.9576934,7.76293632 L29.3889254,4.67741952 C29.6045798,4.62350592 29.8140134,4.78732032 29.8140134,5.00919552 L29.816087,15.7877683 C29.816087,19.2423859 29.0986214,21.9567283 27.991319,24.1008307 L27.991319,24.1008307 Z M15.8897894,35.0494387 C15.8897894,35.0494387 8.67988224,31.5077299 5.19208704,26.3403187 C9.41808384,26.1951667 13.5756518,23.5140019 15.902231,19.3916851 C16.5616358,20.4554419 17.3205734,21.4155187 18.1562342,22.2532531 C18.2516198,22.3590067 18.3470054,22.4647603 18.4444646,22.5663667 C19.3008614,23.4331315 20.287895,24.1423027 21.397271,24.6959539 C23.0188262,25.5793075 24.787607,26.1163699 26.6289638,26.2490803 C23.4874598,31.1469235 15.8897894,35.0494387 15.8897894,35.0494387 L15.8897894,35.0494387 Z M2.38028544,4.67119872 L14.8115174,7.75671552 L14.8115174,13.9153075 C14.8115174,13.9153075 14.9442278,17.4383539 12.511895,20.4326323 C11.7695462,21.2807347 10.925591,22.0044211 10.0173542,22.5871027 C8.50362624,23.4849715 6.66849024,24.0199603 4.51194624,24.1692595 L4.47876864,24.1692595 C4.24445184,24.1588915 4.01013504,24.1381555 3.77374464,24.1070515 C2.67058944,21.9650227 1.95519744,19.2444595 1.95519744,15.7836211 L1.95519744,5.00297472 C1.95519744,4.78109952 2.16463104,4.61728512 2.38028544,4.67119872 L2.38028544,4.67119872 Z M24.5636582,3.86042112 L24.5636582,0.89724672 L20.3957222,4.03045632 L20.3957222,0.09061632 L15.788183,5.84900352 L8.62804224,0.44520192 L8.62804224,3.05586432 L4.03916544,0.53851392 L4.03916544,3.07245312 L0.42488064,2.17665792 C0.20922624,2.12274432 -0.00020736,2.28448512 -0.00020736,2.50843392 L-0.00020736,15.7836211 C-0.00020736,32.9468083 15.8897894,37.3241779 15.8897894,37.3241779 C15.8897894,37.3241779 31.7777126,32.9530291 31.7777126,15.7836211 L31.7777126,2.50843392 C31.7777126,2.28448512 31.5703526,2.12274432 31.3526246,2.17665792 L24.5636582,3.86042112 Z" id="Fill-3" fill="#FFFFFF" mask="url(#mask-2)"></path>
                    </g>
                    <path d="M15.8899968,22.8035174 C14.2601472,25.8496358 11.985408,27.0004838 11.985408,27.0004838 L15.8899968,32.8666982 L19.7904384,27.0004838 C19.7904384,27.0004838 17.5136256,25.8517094 15.8899968,22.8035174" id="Fill-6" fill="#FFFFFF"></path>
                    <path d="M26.482775,12.7009382 C26.482775,12.7009382 25.2199526,11.6993894 23.538263,11.6993894 C21.858647,11.6993894 20.5875302,12.7009382 20.5875302,12.7009382 C20.1624422,12.9642854 19.7580902,13.5863654 19.6689254,14.075735 C19.8845798,14.6936678 20.1873254,14.8595558 20.573015,14.5692518 C20.573015,14.5692518 21.9498854,13.3126502 23.538263,13.3126502 C25.1266406,13.3126502 26.4952166,14.5692518 26.4952166,14.5692518 C26.8788326,14.8491878 27.1815782,14.6853734 27.395159,14.075735 C27.2686694,13.5220838 26.9451878,13.0347878 26.482775,12.7009382" id="Fill-8" fill="#FFFFFF"></path>
                    <path d="M54.9217843,15.0882739 C54.9031219,14.9680051 54.8595763,14.8622515 54.7641907,14.7896755 C54.6563635,14.7108787 54.5112115,14.7108787 54.3764275,14.7129523 C54.0529459,14.7212467 53.7315379,14.7274675 53.4080563,14.7336883 C53.2836403,14.7357619 53.1488563,14.7419827 53.0555443,14.8249267 C52.9435699,14.9244595 52.9352755,15.0944947 52.9373491,15.2417203 C52.9497907,17.0768563 52.9622323,18.9119923 52.9767475,20.7471283 C52.9788211,21.5330227 52.9829683,22.3375795 52.7237683,23.0799283 C52.3795507,24.0731827 51.5687731,24.8839603 50.5900339,25.2696499 C49.6133683,25.6594867 48.4894771,25.6346035 47.5128115,25.2509875 C46.6025011,24.8964019 45.7979443,24.2162611 45.4205491,23.3183923 C45.1012147,22.5615283 45.1012147,21.7092787 45.1053619,20.8881331 C45.1136563,19.0177459 45.1219507,17.1432115 45.1302451,15.2728243 C45.1323187,15.1069363 45.1219507,14.9182387 44.9975347,14.8124851 C44.8959283,14.7274675 44.7528499,14.7233203 44.6180659,14.7233203 C44.2800691,14.7253939 43.9420723,14.7274675 43.6040755,14.7274675 C43.5397939,14.7274675 43.4734387,14.7336883 43.4112307,14.7482035 C43.3510963,14.7627187 43.2909619,14.7834547 43.2411955,14.8207795 C43.2204595,14.8373683 43.2017971,14.8581043 43.1872819,14.8809139 C43.1727667,14.9057971 43.1582515,14.9348275 43.1499571,14.9597107 C43.1375155,14.9908147 43.1395891,15.0219187 43.1395891,15.0509491 C43.1395891,15.0986419 43.1375155,15.1442611 43.1375155,15.1919539 C43.1375155,15.2852659 43.1375155,15.3785779 43.1354419,15.4718899 C43.1354419,15.5631283 43.1354419,15.6564403 43.1333683,15.7497523 C43.1333683,15.8430643 43.1333683,15.9363763 43.1312947,16.0296883 L43.1312947,16.3096243 C43.1292211,16.4029363 43.1292211,16.4962483 43.1292211,16.5895603 C43.1292211,16.6828723 43.1292211,16.7741107 43.1292211,16.8694963 C43.1271475,16.9628083 43.1271475,17.0561203 43.1271475,17.1494323 C43.1250739,17.2427443 43.1250739,17.3360563 43.1250739,17.4293683 C43.1230003,17.5226803 43.1230003,17.6159923 43.1230003,17.7093043 C43.1209267,17.8026163 43.1209267,17.8959283 43.1209267,17.9871667 C43.1188531,18.0804787 43.1188531,18.1737907 43.1188531,18.2671027 C43.1188531,18.3604147 43.1167795,18.4537267 43.1167795,18.5470387 C43.1167795,18.6403507 43.1147059,18.7336627 43.1147059,18.8269747 C43.1147059,18.9202867 43.1126323,19.0135987 43.1126323,19.1069107 C43.1126323,19.2002227 43.1105587,19.2935347 43.1105587,19.3868467 C43.1105587,19.4801587 43.1084851,19.5734707 43.1084851,19.6667827 C43.1084851,19.7600947 43.1064115,19.8534067 43.1064115,19.9467187 C43.1064115,20.0400307 43.1043379,20.1333427 43.1043379,20.2266547 L43.1043379,20.3033779 C43.0960435,21.5392435 43.0939699,22.8124339 43.5480883,23.9612083 C44.3319091,25.9373491 46.4179507,27.2188339 48.5392435,27.3826483 C49.7626675,27.4780339 51.0171955,27.2395699 52.0933939,26.6485939 C53.1654451,26.0596915 54.0508723,25.1079091 54.5049907,23.9695027 C54.9756979,22.7875507 54.9736243,21.4791091 54.9674035,20.2079923 L54.9383731,15.3225907 C54.9383731,15.2458675 54.9362995,15.1649971 54.9217843,15.0882739" id="Fill-10" fill="#FFFFFF"></path>
                    <path d="M41.9294362,27.0378086 C41.9294362,27.2389478 41.7656218,27.4048358 41.5644826,27.4027815 C37.8651802,27.3695846 36.6085786,25.9906406 36.6085786,23.5023206 L36.6085786,10.6916198 C36.6085786,10.4925542 36.7703194,10.3287398 36.969385,10.3287398 L38.2799002,10.3287398 C38.4810394,10.3287398 38.6448538,10.4925542 38.6448538,10.6916198 L38.6448538,14.4966758 C38.6448538,14.552663 38.6883994,14.594135 38.7402394,14.594135 L41.572777,14.594135 C41.7739162,14.594135 41.9377306,14.7558758 41.9377306,14.9590886 L41.9377306,15.9792998 C41.9377306,16.180439 41.7739162,16.3421798 41.572777,16.3421798 L38.9558938,16.3421798 C38.6863258,16.3421798 38.649001,16.3795046 38.649001,16.4251238 L38.6448538,23.2265318 C38.6821786,24.9538406 39.7832602,25.4680934 41.5872922,25.5510374 C41.780137,25.5593318 41.9294362,25.7210726 41.9294362,25.9139174 L41.9294362,27.0378086 Z" id="Fill-12" fill="#FFFFFF"></path>
                    <path d="M69.6072269,21.0052915 C69.6528461,22.7512627 68.9872205,24.3043891 67.5771725,25.5817267 C66.1691981,26.8383283 64.5227597,27.4624819 62.6295629,27.3982003 C60.8047949,27.3567283 59.2184909,26.6351155 57.9473741,25.3992499 C56.6783309,24.1633843 56.0935757,22.7139379 56.0935757,21.0094387 C56.0935757,19.2427315 56.7426125,17.6647219 58.1049677,16.4060467 C59.4673229,15.1287091 61.0868045,14.5190707 62.9696333,14.5501747 C64.7695181,14.5792051 66.3226445,15.2137267 67.6808525,16.5221683 L67.6787789,10.5978931 C67.6787789,10.4548147 67.7949005,10.3635763 67.9359053,10.3615027 L69.3874253,10.3366195 C69.5284301,10.3283251 69.6238157,10.4257843 69.6321101,10.5771571 L69.6072269,21.0052915 Z M62.6772557,25.5817267 C64.0644941,25.6149043 65.0722637,25.2603187 66.1152845,24.3023155 C67.1520845,23.3505331 67.6725581,22.1561395 67.6269389,20.8124467 C67.6020557,19.5351091 67.1707469,18.6247987 66.2251853,17.7061939 C65.2775501,16.7917363 64.2718541,16.3894579 62.9094989,16.3894579 C61.5243341,16.3707955 60.4585037,16.8186931 59.4714701,17.7435187 C58.5051725,18.6496819 58.0655693,19.6035379 58.0427597,20.9036851 C58.0178765,22.1810227 58.5217613,23.1950131 59.3553485,24.0514099 C60.2345549,24.9554995 61.3149005,25.5485491 62.6772557,25.5817267 L62.6772557,25.5817267 Z" id="Fill-14" fill="#FFFFFF"></path>
                    <g id="Group-18" transform="translate(70.502400, 14.137620)">
                        <mask id="mask-4" fill="white">
                            <use xlink:href="#path-3"></use>
                        </mask>
                        <g id="Clip-17"></g>
                        <path d="M6.28134912,0.32898816 C6.25231872,0.29373696 6.20669952,0.28336896 6.16108032,0.27714816 C4.94180352,0.11333376 3.55456512,0.23360256 2.44518912,0.87019776 C1.54317312,1.38859776 0.91487232,2.07081216 0.53332992,3.06199296 C0.19740672,3.92668416 0.17252352,4.78515456 0.19325952,5.87794176 L0.19325952,12.932329 C0.19325952,13.0194202 0.26583552,13.087849 0.35085312,13.087849 L0.59553792,13.087849 L0.60383232,13.087849 L0.65981952,13.087849 L1.07039232,13.087849 L1.56183552,13.0857754 L1.85213952,13.0857754 L2.14866432,13.087849 C2.23368192,13.087849 2.30418432,13.0194202 2.30418432,12.932329 L2.30418432,10.3341082 L2.30418432,9.08580096 L2.30418432,5.33880576 L2.30418432,5.33673216 C2.33114112,5.01532416 2.33114112,4.69184256 2.40786432,4.38494976 C2.60278272,3.61149696 3.06934272,2.89817856 3.78473472,2.54151936 C4.48768512,2.18900736 5.31297792,2.26573056 6.09679872,2.23877376 C6.16315392,2.23462656 6.23987712,2.22633216 6.27720192,2.17034496 C6.30001152,2.13716736 6.30208512,2.09362176 6.30208512,2.05214976 L6.31245312,0.46169856 C6.31245312,0.41607936 6.31245312,0.36423936 6.28134912,0.32898816" id="Fill-16" fill="#FFFFFF" mask="url(#mask-4)"></path>
                    </g>
                </g>
                <text id="POWERED-BY" font-family="GTWalsheimProBlack, GT Walsheim Pro" font-size="10" font-weight="700" letter-spacing="0.666666651" fill="#FFFFFF">
                    <tspan x="0.0416667461" y="22">POWERED BY</tspan>
                </text>
            </g>
        </g>
    </g>
</svg>