<?xml version="1.0" encoding="UTF-8"?>
<svg width="160px" height="27px" viewBox="0 0 160 27" version="1.1" xmlns="http://www.w3.org/2000/svg" xmlns:xlink="http://www.w3.org/1999/xlink">
    <!-- Generator: sketchtool 57.1 (101010) - https://sketch.com -->
    <title>DF225391-0629-409C-ABCE-43767D275F09@3x</title>
    <desc>Created with sketchtool.</desc>
    <defs>
        <polygon id="path-1" points="0.3945984 0.097024 105.5232 0.097024 105.5232 25.6 0.3945984 25.6"></polygon>
    </defs>
    <g id="Page-1" stroke="none" stroke-width="1" fill="none" fill-rule="evenodd">
        <g id="USTK-Intro" transform="translate(-640.000000, -52.000000)">
            <g id="UniStak-Logo" transform="translate(640.000000, 52.000000)">
                <g id="Group-3" transform="translate(53.760000, 0.455936)">
                    <mask id="mask-2" fill="white">
                        <use xlink:href="#path-1"></use>
                    </mask>
                    <g id="Clip-2"></g>
                    <path d="M90.4958464,15.513344 L87.0808064,18.964224 L87.0808064,25.205504 L81.2240384,25.205504 L81.2240384,0.532224 L87.0808064,0.532224 L87.0808064,12.052224 L98.3448064,0.532224 L104.888166,0.532224 L94.3619584,11.524864 L105.523558,25.200384 L98.6417664,25.200384 L90.4958464,15.513344 Z M65.6587264,15.585024 L61.6195584,6.138624 L57.5849984,15.585024 L65.6587264,15.585024 Z M67.5121664,19.916544 L55.6952064,19.916544 L53.4424064,25.205504 L47.4059264,25.205504 L58.7467264,0.537344 L64.5681664,0.537344 L75.9299584,25.200384 L69.7859584,25.200384 L67.5121664,19.916544 Z M33.7565184,5.181184 L25.6105984,5.181184 L25.6105984,0.532224 L47.7699584,0.532224 L47.7699584,5.181184 L39.6286464,5.181184 L39.6286464,25.200384 L33.7565184,25.200384 L33.7565184,5.181184 Z M0.3945984,22.768384 L2.3908864,18.467584 C4.8812544,20.123904 7.8022144,21.01376 10.7928064,21.027584 C14.2846464,21.027584 15.7028864,19.901184 15.7028864,18.385664 C15.7028864,13.777664 0.9014784,16.941824 0.9014784,7.777024 C0.9014784,3.583744 4.3928064,0.097024 11.6273664,0.097024 C14.8273664,0.097024 18.0995584,0.834304 20.4649984,2.283264 L18.6468864,6.604544 C16.4949504,5.378304 14.0685824,4.712192 11.5920384,4.669184 C8.0996864,4.669184 6.7582464,5.933824 6.7582464,7.485184 C6.7582464,12.031744 21.5555584,8.898304 21.5555584,17.955584 C21.5555584,22.051584 18.0273664,25.599744 10.7574784,25.599744 C6.7224064,25.620224 2.6468864,24.457984 0.3945984,22.768384 L0.3945984,22.768384 Z" id="Fill-1" fill="#FFFFFF" mask="url(#mask-2)"></path>
                </g>
                <path d="M44.7233536,25.3182976 C46.1528576,25.3157376 47.3115136,24.1570816 47.3140736,22.7275776 L47.3140736,2.9336576 C47.3115136,1.5041536 46.1528576,0.3460096 44.7233536,0.3429376 L2.9339136,0.3429376 C1.5038976,0.3460096 0.3457536,1.5041536 0.3431936,2.9336576 L0.3431936,22.7275776 C0.3457536,24.1570816 1.5038976,25.3157376 2.9339136,25.3182976 L44.7233536,25.3182976 M44.7233536,25.6613376 L2.9339136,25.6613376 C1.3144576,25.6587776 0.0027136,24.3470336 0.0001536,22.7275776 L0.0001536,2.9336576 C0.0001536,1.3136896 1.3134336,-0.000107795291 2.9339136,-0.000107795291 L44.7233536,-0.000107795291 C46.3407616,-0.0031744 47.6545536,1.3060096 47.6566016,2.9234176 L47.6566016,2.9336576 L47.6566016,22.7275776 C47.6566016,24.3480576 46.3433216,25.6613376 44.7233536,25.6613376" id="Fill-4" fill="#FFFFFF"></path>
                <path d="M38.49216,19.194624 L39.3472,19.194624 L39.3472,6.276864 L38.49216,6.276864 L38.49216,19.194624 Z M32.64512,6.276864 L32.64512,19.194624 L31.93856,19.194624 L23.936,7.971584 L23.936,19.194624 L23.08096,19.194624 L23.08096,6.272256 L23.80288,6.272256 L31.79008,17.495296 L31.79008,6.272256 L32.64512,6.276864 Z M7.92064,13.716736 L7.92064,6.272256 L8.77568,6.272256 L8.77568,13.675776 C8.77568,16.906496 10.18368,18.416384 12.63616,18.416384 C15.08864,18.416384 16.47616,16.880384 16.47616,13.675776 L16.47616,6.272256 L17.3312,6.272256 L17.3312,13.716736 C17.3312,17.408256 15.5392,19.291904 12.61568,19.291904 C9.69216,19.291904 7.92064,17.402624 7.92064,13.716736 L7.92064,13.716736 Z" id="Fill-6" fill="#FFFFFF"></path>
            </g>
        </g>
    </g>
</svg>